<svg xmlns="http://www.w3.org/2000/svg"  viewBox="0 0 64 64" width="48px" height="48px"><path d="M 23.773438 12 C 12.855437 12 12 12.854437 12 23.773438 L 12 40.226562 C 12 51.144563 12.855438 52 23.773438 52 L 40.226562 52 C 51.144563 52 52 51.145563 52 40.226562 L 52 23.773438 C 52 12.854437 51.145563 12 40.226562 12 L 23.773438 12 z M 21.167969 16 L 42.832031 16 C 47.625031 16 48 16.374969 48 21.167969 L 48 42.832031 C 48 47.625031 47.624031 48 42.832031 48 L 21.167969 48 C 16.374969 48 16 47.624031 16 42.832031 L 16 21.167969 C 16 16.374969 16.374969 16 21.167969 16 z M 29.998047 19.517578 C 29.690951 19.495084 29.375141 19.559984 29.087891 19.724609 C 28.321891 20.163609 28.056094 21.14025 28.496094 21.90625 C 28.558071 22.01373 29.352708 23.402428 30.15625 24.802734 C 28.584196 27.542327 27.058611 30.202314 24.867188 34.021484 L 20.599609 34.021484 C 19.716609 34.021484 19 34.736141 19 35.619141 C 19 36.502141 19.716609 37.21875 20.599609 37.21875 L 35.453125 37.21875 C 36.124125 35.38475 34.752187 34.180484 33.617188 34.021484 L 28.552734 34.021484 C 31.641277 28.638533 35.338514 22.195686 35.503906 21.90625 C 35.943906 21.14025 35.678109 20.163609 34.912109 19.724609 C 34.147109 19.285609 33.170469 19.550406 32.730469 20.316406 C 32.713411 20.346125 32.084392 21.442781 32 21.589844 C 31.705231 21.076327 31.303977 20.376686 31.269531 20.316406 C 30.995156 19.837656 30.509873 19.555068 29.998047 19.517578 z M 34.375 25.724609 C 33.113 27.281609 32.908234 28.990125 33.615234 30.828125 C 36.552234 35.946125 39.689703 41.412594 39.845703 41.683594 C 40.284703 42.449594 41.261344 42.714391 42.027344 42.275391 C 42.793344 41.836391 43.057187 40.85975 42.617188 40.09375 C 42.578576 40.026529 41.324382 37.838532 40.96875 37.21875 L 43.400391 37.21875 C 44.283391 37.21875 45 36.502141 45 35.619141 C 45 34.736141 44.283391 34.021484 43.400391 34.021484 L 39.134766 34.021484 C 37.417768 31.028874 36.27705 29.040783 34.375 25.724609 z M 23.474609 37.869141 C 23.188688 37.873859 22.892688 37.916141 22.585938 37.994141 C 21.892937 39.202141 21.439813 39.99475 21.382812 40.09375 C 20.943812 40.85875 21.206656 41.836391 21.972656 42.275391 C 22.738656 42.714391 23.71625 42.449594 24.15625 41.683594 C 24.22225 41.568594 24.831375 40.506594 25.734375 38.933594 C 25.093875 38.183594 24.332375 37.854984 23.474609 37.869141 z"/></svg>